<svg width="177" height="30" viewBox="0 0 177 30" fill="none" xmlns="http://www.w3.org/2000/svg">
<path d="M170.435 24.0428C169.87 23.4133 169.392 22.7109 169.011 21.9542C168.411 20.7681 167.58 19.7151 166.569 18.8573C165.558 17.9995 164.387 17.3542 163.124 16.9594C162.02 16.6156 160.865 16.4697 159.711 16.5282C160.551 16.4799 161.378 16.753 162.026 17.2931C162.675 17.833 163.097 18.5999 163.208 19.44C163.511 21.2552 164.31 22.9496 165.515 24.334C166.719 25.7183 168.282 26.7381 170.029 27.2794C172.026 27.8977 174.166 27.8644 176.144 27.1842C173.941 26.8223 171.927 25.7142 170.435 24.0428Z" fill="#E4E4E7"/>
<path d="M156.272 16.3489C156.529 17.4696 156.981 18.5373 157.608 19.5038C157.151 18.802 156.974 17.9554 157.115 17.1311C157.255 16.3067 157.701 15.5644 158.365 15.0505C159.776 13.892 160.836 12.3675 161.425 10.6467C162.015 8.92589 162.112 7.07641 161.705 5.30423C161.241 3.27691 160.14 1.44854 158.56 0.0830078C159.346 2.16934 159.392 4.45967 158.688 6.57501C158.419 7.37361 158.045 8.13342 157.575 8.83478C156.854 9.93654 156.363 11.1707 156.13 12.4642C155.898 13.7576 155.929 15.0842 156.222 16.3655L156.272 16.3489Z" fill="#E4E4E7"/>
<path d="M161.194 20.251C160.821 21.005 160.181 21.5877 159.402 21.8823C158.624 22.177 157.765 22.1617 156.997 21.8396C155.304 21.1954 153.469 21.0419 151.696 21.3962C149.923 21.7506 148.281 22.5989 146.956 23.8464C145.444 25.2752 144.418 27.1549 144.025 29.2144C145.432 27.4796 147.379 26.284 149.545 25.8252C150.359 25.6561 151.19 25.5905 152.02 25.6301C153.321 25.6987 154.623 25.5016 155.848 25.0507C157.073 24.5997 158.197 23.9041 159.153 23.0047C159.99 22.2152 160.684 21.2833 161.205 20.251H161.194Z" fill="#E4E4E7"/>
<path d="M0.271484 29.0827H4.98748V17.5987C4.98748 16.3267 5.33548 15.3067 6.03148 14.5387C6.72748 13.7707 7.63948 13.3867 8.76748 13.3867C9.91949 13.3867 10.8315 13.7707 11.5035 14.5387C12.1995 15.2827 12.5475 16.3027 12.5475 17.5987V29.0827H17.2635V17.5987C17.2635 16.3267 17.6115 15.3067 18.3075 14.5387C19.0035 13.7707 19.9155 13.3867 21.0435 13.3867C22.1955 13.3867 23.1075 13.7707 23.7795 14.5387C24.4755 15.2827 24.8235 16.3027 24.8235 17.5987V29.0827H29.5395V16.4827C29.5395 15.0187 29.2155 13.7347 28.5675 12.6307C27.9435 11.5027 27.0915 10.6267 26.0115 10.0027C24.9315 9.3787 23.6955 9.0667 22.3035 9.0667C21.0075 9.0667 19.8315 9.3307 18.7755 9.8587C17.7435 10.3867 16.8915 11.1787 16.2195 12.2347C15.6435 11.2747 14.8155 10.5067 13.7355 9.9307C12.6795 9.3547 11.4915 9.0667 10.1715 9.0667C8.94748 9.0667 7.85548 9.3067 6.89548 9.7867C5.93548 10.2667 5.20348 10.9867 4.69948 11.9467V9.4987H0.271484V29.0827Z" fill="#E4E4E7"/>
<path d="M39.4693 29.5147C42.0133 29.5147 44.0533 28.6747 45.5893 26.9947V29.0827H50.0533V16.0507C50.0533 14.6827 49.7053 13.4707 49.0093 12.4147C48.3133 11.3587 47.3533 10.5427 46.1293 9.9667C44.9293 9.3667 43.5253 9.0667 41.9173 9.0667C39.9493 9.0667 38.1973 9.5347 36.6613 10.4707C35.1253 11.4067 34.0693 12.6427 33.4933 14.1787L37.3453 16.0507C37.7053 15.1627 38.2693 14.4547 39.0373 13.9267C39.8053 13.3747 40.7053 13.0987 41.7373 13.0987C42.8173 13.0987 43.6813 13.3867 44.3293 13.9627C45.0013 14.5147 45.3373 15.2107 45.3373 16.0507V16.6987L39.5053 17.6347C37.2013 18.0187 35.4973 18.7507 34.3933 19.8307C33.2893 20.9107 32.7373 22.2667 32.7373 23.8987C32.7373 25.6267 33.3493 26.9947 34.5733 28.0027C35.7973 29.0107 37.4293 29.5147 39.4693 29.5147ZM37.6333 23.7187C37.6333 22.3507 38.5573 21.4867 40.4053 21.1267L45.3373 20.2987V21.0907C45.3373 22.4347 44.8693 23.5747 43.9333 24.5107C43.0213 25.4467 41.8213 25.9147 40.3333 25.9147C39.5413 25.9147 38.8933 25.7227 38.3893 25.3387C37.8853 24.9307 37.6333 24.3907 37.6333 23.7187Z" fill="#E4E4E7"/>
<path d="M54.4121 29.0827H59.1281V18.1747C59.1281 16.6867 59.5361 15.5347 60.3521 14.7187C61.1921 13.8787 62.2721 13.4587 63.5921 13.4587H65.2841V9.2827H64.1321C62.9321 9.2827 61.8761 9.4987 60.9641 9.9307C60.0521 10.3627 59.3441 11.1427 58.8401 12.2707V9.4987H54.4121V29.0827Z" fill="#E4E4E7"/>
<path d="M77.3323 29.2987C78.1243 29.2987 78.9043 29.2387 79.6723 29.1187V25.0507C79.2163 25.1227 78.7963 25.1587 78.4123 25.1587C77.2603 25.1587 76.4203 24.8947 75.8923 24.3667C75.3643 23.8387 75.1003 23.0827 75.1003 22.0987V13.7107H79.6003V9.4987H75.1003V5.0347H70.3843V6.5467C70.3843 7.5067 70.1203 8.2387 69.5923 8.7427C69.0643 9.2467 68.3203 9.4987 67.3603 9.4987H67.0003V13.7107H70.3843V22.3507C70.3843 24.5347 70.9843 26.2387 72.1843 27.4627C73.4083 28.6867 75.1243 29.2987 77.3323 29.2987Z" fill="#E4E4E7"/>
<path d="M83.2754 7.3027H87.9914V2.2627H83.2754V7.3027ZM83.2754 29.0827H87.9914V9.4987H83.2754V29.0827Z" fill="#E4E4E7"/>
<path d="M92.3457 29.0827H97.0617V17.5987C97.0617 16.3267 97.4217 15.3067 98.1417 14.5387C98.8857 13.7707 99.8457 13.3867 101.022 13.3867C102.198 13.3867 103.146 13.7707 103.866 14.5387C104.61 15.2827 104.982 16.3027 104.982 17.5987V29.0827H109.698V16.4827C109.698 15.0187 109.386 13.7347 108.762 12.6307C108.138 11.5027 107.262 10.6267 106.134 10.0027C105.03 9.3787 103.758 9.0667 102.318 9.0667C101.094 9.0667 99.9897 9.3067 99.0057 9.7867C98.0457 10.2667 97.3017 10.9747 96.7737 11.9107V9.4987H92.3457V29.0827Z" fill="#E4E4E7"/>
<path d="M123.262 29.5147C125.158 29.5147 126.886 29.0827 128.446 28.2187C130.006 27.3307 131.254 26.1187 132.19 24.5827C133.126 23.0227 133.594 21.2587 133.594 19.2907C133.594 17.3227 133.126 15.5707 132.19 14.0347C131.278 12.4987 130.042 11.2867 128.482 10.3987C126.922 9.5107 125.182 9.0667 123.262 9.0667C121.318 9.0667 119.566 9.5107 118.006 10.3987C116.446 11.2867 115.198 12.4987 114.262 14.0347C113.35 15.5707 112.894 17.3227 112.894 19.2907C112.894 21.2587 113.35 23.0107 114.262 24.5467C115.198 26.0827 116.446 27.2947 118.006 28.1827C119.59 29.0707 121.342 29.5147 123.262 29.5147ZM123.262 25.1947C122.206 25.1947 121.258 24.9427 120.418 24.4387C119.602 23.9347 118.954 23.2387 118.474 22.3507C118.018 21.4387 117.79 20.4187 117.79 19.2907C117.79 18.1627 118.018 17.1547 118.474 16.2667C118.954 15.3787 119.602 14.6827 120.418 14.1787C121.258 13.6507 122.206 13.3867 123.262 13.3867C124.318 13.3867 125.242 13.6507 126.034 14.1787C126.85 14.6827 127.486 15.3787 127.942 16.2667C128.422 17.1547 128.662 18.1627 128.662 19.2907C128.662 20.4187 128.422 21.4387 127.942 22.3507C127.486 23.2387 126.85 23.9347 126.034 24.4387C125.242 24.9427 124.318 25.1947 123.262 25.1947Z" fill="#E4E4E7"/>
</svg>
