<svg width="103" height="31" viewBox="0 0 103 31" fill="none" xmlns="http://www.w3.org/2000/svg">
<path d="M19.0777 7.15356C15.1269 7.15356 7.21325 3.9509 7.21325 0H7.15475C7.15475 3.16212 8.41086 6.19472 10.6468 8.43071C12.8827 10.6667 15.9152 11.9229 19.0774 11.9231C20.9746 11.9231 22.7942 12.6767 24.1359 14.0183C25.4775 15.3599 26.2312 17.1795 26.2312 19.0768C26.2316 20.974 25.4783 22.7939 24.1369 24.1357C22.7956 25.4777 20.9761 26.2317 19.0788 26.2321C17.1814 26.2324 15.3617 25.479 14.0198 24.1377C12.6779 22.7963 11.9239 20.9769 11.9235 19.0796C11.9235 17.5138 11.615 15.9634 11.0158 14.5168C10.4165 13.0703 9.53826 11.7559 8.43106 10.6487C7.32385 9.54162 6.00944 8.66341 4.56282 8.06426C3.11623 7.46512 1.56577 7.15678 0 7.15684V7.21487C3.95016 7.21487 7.15283 15.1252 7.1543 19.0766H7.15356C7.15354 21.4349 7.85277 23.74 9.16285 25.7008C10.4729 27.6615 12.335 29.1898 14.5137 30.0922C16.6923 30.9948 19.0896 31.231 21.4025 30.7709C23.7153 30.311 25.8398 29.1755 27.5074 27.5082C29.1749 25.8407 30.3105 23.7163 30.7708 21.4034C31.231 19.0906 30.9949 16.6933 30.0926 14.5146C29.1904 12.3359 27.6623 10.4737 25.7017 9.16343C23.7409 7.85318 21.4357 7.15374 19.0777 7.15356Z" fill="#E4E4E7"/>
<path d="M42.6705 29.2975C42.6705 29.6675 43.0035 30.0005 43.3735 30.0005H45.2235C45.6675 30.0005 46.2595 29.8525 46.2595 29.2975V18.2715H53.3265V29.2975C53.3265 29.6675 53.6595 30.0005 54.0295 30.0005H56.1385C56.5085 30.0005 56.8415 29.6675 56.8415 29.2975V15.9035C56.8415 15.5335 56.5085 15.2005 56.1385 15.2005H46.2595V10.6125C46.2595 8.05947 47.8135 6.98647 49.3305 6.98647C50.9585 6.98647 52.8455 7.98547 53.1785 8.17047C53.5855 8.39247 53.9185 8.42947 54.1405 7.98547L55.0655 6.32047C55.2505 6.02447 55.1765 5.58047 54.8805 5.39547C54.1035 4.91447 51.8095 3.73047 49.3305 3.73047C45.6675 3.73047 42.6705 6.20947 42.6705 10.6125V15.2005H40.9315C40.5245 15.2005 40.2285 15.4965 40.2285 15.9035V17.5685C40.2285 17.9385 40.5245 18.2715 40.9315 18.2715H42.6705V29.2975Z" fill="#E4E4E7"/>
<path d="M61.6495 29.2975C61.6495 29.6675 61.9825 30.0005 62.3525 30.0005H64.1285C64.7205 30.0005 65.1275 29.9265 65.1275 29.2975V19.8995C65.2755 19.6405 66.3115 18.0865 68.4575 18.0865C68.9385 18.0865 69.4935 18.2345 69.7155 18.3455C70.0485 18.4935 70.4185 18.4195 70.6035 18.0125L71.4915 16.1995C71.8985 15.2005 70.1965 14.8305 68.7905 14.8305C66.0895 14.8305 64.7205 16.6065 64.4615 16.9765L64.0545 15.7185C63.9805 15.4225 63.6845 15.2005 63.4255 15.2005H62.3525C61.9825 15.2005 61.6495 15.5335 61.6495 15.9035V29.2975Z" fill="#E4E4E7"/>
<path d="M72.8978 22.6005C72.8978 26.8555 75.8578 30.3705 80.3348 30.3705C82.8138 30.3705 84.7378 29.4455 85.8108 28.5205C86.2548 28.1505 86.1438 27.8545 85.8848 27.5585L84.8488 26.1525C84.5528 25.7825 84.2938 25.9305 83.8498 26.1895C83.1098 26.6705 81.8888 27.2625 80.5568 27.2625C78.1518 27.2625 76.4128 25.3015 76.3018 23.3035H86.3658C86.6988 23.3035 86.9948 23.0445 87.0318 22.6745C87.0688 22.4155 87.1058 21.9345 87.1058 21.6755C87.1058 17.7165 84.1458 14.8305 80.2978 14.8305C75.8578 14.8305 72.8978 18.4195 72.8978 22.6005ZM76.4868 20.9725C76.7088 19.1225 78.2628 17.6795 80.2608 17.6795C82.0738 17.6795 83.5538 19.1965 83.6648 20.9725H76.4868Z" fill="#E4E4E7"/>
<path d="M90.6641 29.2975C90.6641 29.6675 90.9971 30.0005 91.3671 30.0005H93.4761C93.8461 30.0005 94.1791 29.6675 94.1791 29.2975V4.80347C94.1791 4.43347 93.8461 4.10047 93.4761 4.10047H91.3671C90.9971 4.10047 90.6641 4.43347 90.6641 4.80347V29.2975Z" fill="#E4E4E7"/>
<path d="M100.677 9.16947C101.898 9.16947 102.86 8.20747 102.86 7.02347C102.86 5.80247 101.898 4.84047 100.677 4.84047C99.4927 4.84047 98.5677 5.80247 98.5677 7.02347C98.5677 8.20747 99.4927 9.16947 100.677 9.16947ZM98.9747 29.2975C98.9747 29.6675 99.3077 30.0005 99.6777 30.0005H101.787C102.157 30.0005 102.49 29.6675 102.49 29.2975V15.9035C102.49 15.5335 102.157 15.2005 101.787 15.2005H99.6777C99.3077 15.2005 98.9747 15.5335 98.9747 15.9035V29.2975Z" fill="#E4E4E7"/>
</svg>
